<svg xmlns="http://www.w3.org/2000/svg" version="1.1" xmlns:xlink="http://www.w3.org/1999/xlink" width="200" height="200"><svg xmlns="http://www.w3.org/2000/svg" version="1.1" xmlns:xlink="http://www.w3.org/1999/xlink" viewBox="0 0 200 200"><rect width="200" height="200" fill="url('#gradient')"></rect><defs><linearGradient id="SvgjsLinearGradient1001" gradientTransform="rotate(45 0.5 0.5)"><stop offset="0%" stop-color="#ffffff"></stop><stop offset="100%" stop-color="#ffffff"></stop></linearGradient></defs><g><g fill="#0500ff" transform="matrix(4.599950087347143,0,0,4.599950087347143,5.057382669447662,132.68701872267508)" stroke="#ffffff" stroke-width="0.2"><path d="M4.50-14.22L4.50-2.64L10.47-2.64L10.47 0L1.07 0L1.07-14.22L4.50-14.22ZM11.91-14.22L16.42-14.22L19.59-4.33L22.75-14.22L27.27-14.22L27.27 0L23.83 0L23.83-3.32L24.16-10.12L20.72 0L18.46 0L15.01-10.13L15.34-3.32L15.34 0L11.91 0L11.91-14.22ZM36.78-3.78L36.78-3.78Q36.78-4.53 36.25-4.95Q35.71-5.37 34.38-5.82Q33.04-6.27 32.19-6.69L32.19-6.69Q29.42-8.05 29.42-10.42L29.42-10.42Q29.42-11.60 30.11-12.50Q30.80-13.41 32.06-13.91Q33.32-14.41 34.89-14.41L34.89-14.41Q36.43-14.41 37.64-13.87Q38.86-13.32 39.53-12.31Q40.21-11.30 40.21-10L40.21-10L36.79-10Q36.79-10.87 36.25-11.35Q35.72-11.83 34.81-11.83L34.81-11.83Q33.90-11.83 33.36-11.42Q32.83-11.02 32.83-10.39L32.83-10.39Q32.83-9.84 33.42-9.40Q34.00-8.96 35.48-8.48Q36.95-8.01 37.90-7.46L37.90-7.46Q40.21-6.13 40.21-3.80L40.21-3.80Q40.21-1.93 38.80-0.87Q37.39 0.20 34.94 0.20L34.94 0.20Q33.21 0.20 31.81-0.42Q30.41-1.04 29.70-2.12Q28.99-3.20 28.99-4.61L28.99-4.61L32.43-4.61Q32.43-3.47 33.02-2.92Q33.61-2.38 34.94-2.38L34.94-2.38Q35.79-2.38 36.28-2.75Q36.78-3.12 36.78-3.78Z"></path></g></g></svg><style>@media (prefers-color-scheme: light) { :root { filter: none; } }
@media (prefers-color-scheme: dark) { :root { filter: none; } }
</style></svg>